# xmcd
#
# Track frame offsets: 
#        150
#        12804
#        25216
#        36979
#        49523
#        64090
#        76002
#        88994
#        100694
#        110983
#        125975
#        136917
#        148119
#        161083
#        175103
#        189231
#        201233
#        215375
#        229033
#        254418
#        268482
#        282283
#
# Disc length: 3938 seconds
#
# Revision: 2
# Processed by: cddbd v1.5.2PL0 Copyright (c) Steve Scherf et al.
# Submitted via: ExactAudioCopy v0.99pb3
#
DISCID=460f6016
DTITLE=Muddy Waters - 1946-1950
DYEAR=2005
DGENRE=Blues
TTITLE0=Hard Day Blues
TTITLE1=Burying Ground Blues
TTITLE2=Gypsy Woman
TTITLE3=I Can't Be Satisfied
TTITLE4=I Feel Like Going Home
TTITLE5=Mean Disposition
TTITLE6=Train Fare Home
TTITLE7=You're Gonna Miss Me
TTITLE8=Mean Red Spider
TTITLE9=Streamline Woman
TTITLE10=Stand Here Trembling
TTITLE11=Muddy Jumps One
TTITLE12=Little Geneva
TTITLE13=Screamin' And Cryin'
TTITLE14=Where's My Woman Been
TTITLE15=Last Time I Fool Around With You
TTITLE16=Rollin'stone
TTITLE17=Walking Blues
TTITLE18=Rollin' And Tumblin' Part 1&2
TTITLE19=You're Gonna Need My Help I Said
TTITLE20=Sad Letter Blues
TTITLE21=Louisana Blues
EXTD=
EXTT0=
EXTT1=
EXTT2=
EXTT3=
EXTT4=
EXTT5=
EXTT6=
EXTT7=
EXTT8=
EXTT9=
EXTT10=
EXTT11=
EXTT12=
EXTT13=
EXTT14=
EXTT15=
EXTT16=
EXTT17=
EXTT18=
EXTT19=
EXTT20=
EXTT21=
PLAYORDER=
